<svg width="21" height="11" viewBox="0 0 21 11" fill="none" xmlns="http://www.w3.org/2000/svg">
<path d="M19.0076 11L1.98927 11C1.68822 10.9989 1.3943 10.9183 1.14468 10.7685C0.895063 10.6186 0.700954 10.4063 0.586903 10.1582C0.472849 9.9102 0.443974 9.63763 0.503927 9.37498C0.563879 9.11233 0.709967 8.87141 0.923719 8.68267L9.41767 1.12085C9.55918 0.993837 9.72753 0.893021 9.91303 0.824222C10.0985 0.755422 10.2975 0.72 10.4984 0.72C10.6994 0.72 10.8983 0.755422 11.0838 0.824222C11.2693 0.893021 11.4377 0.993837 11.5792 1.12085L20.0732 8.68267C20.2869 8.87141 20.433 9.11233 20.4929 9.37498C20.5529 9.63763 20.524 9.9102 20.41 10.1582C20.2959 10.4063 20.1018 10.6186 19.8522 10.7685C19.6026 10.9183 19.3087 10.9989 19.0076 11Z" fill="white"/>
</svg>
