<svg width="21" height="11" viewBox="0 0 21 11" fill="none" xmlns="http://www.w3.org/2000/svg">
<path d="M1.99239 0H19.0107C19.3118 0.00112374 19.6057 0.0816948 19.8553 0.231526C20.1049 0.381356 20.299 0.593718 20.4131 0.841757C20.5272 1.0898 20.556 1.36237 20.4961 1.62502C20.4361 1.88767 20.29 2.12859 20.0763 2.31733L11.5823 9.87915C11.4408 10.0062 11.2725 10.107 11.087 10.1758C10.9015 10.2446 10.7025 10.28 10.5016 10.28C10.3006 10.28 10.1017 10.2446 9.91615 10.1758C9.73066 10.107 9.5623 10.0062 9.42079 9.87915L0.926845 2.31733C0.713093 2.12859 0.567005 1.88767 0.507052 1.62502C0.4471 1.36237 0.475975 1.0898 0.590027 0.841757C0.70408 0.593718 0.898188 0.381356 1.14781 0.231526C1.39742 0.0816948 1.69134 0.00112374 1.99239 0Z" fill="#8B8989"/>
</svg>
